<?xml version="1.0" standalone="no"?>
<!DOCTYPE svg PUBLIC "-//W3C//DTD SVG 20010904//EN"
 "http://www.w3.org/TR/2001/REC-SVG-20010904/DTD/svg10.dtd">
<svg version="1.0" xmlns="http://www.w3.org/2000/svg"
 width="1280.000000pt" height="768.000000pt" viewBox="0 0 1280.000000 768.000000"
 preserveAspectRatio="xMidYMid meet">
<metadata>
Created by potrace 1.15, written by Peter Selinger 2001-2017
</metadata>
<g transform="translate(0.000000,768.000000) scale(0.100000,-0.100000)"
fill="#ff3c6b" stroke="none">
<path d="M1393 7666 c-172 -42 -353 -220 -418 -410 -11 -31 -23 -56 -28 -56
-5 0 -21 8 -35 19 -49 34 -167 89 -242 113 -99 31 -305 33 -388 5 -123 -43
-224 -142 -258 -253 -18 -58 -19 -183 -3 -250 29 -124 125 -274 243 -381 l67
-59 -83 -85 c-96 -97 -149 -173 -195 -279 -64 -149 -67 -304 -7 -421 109 -216
411 -295 718 -189 33 11 63 20 67 20 4 0 17 -20 28 -45 55 -125 200 -289 312
-352 130 -74 286 -97 411 -59 72 22 165 83 218 144 65 75 127 211 146 322 9
52 17 96 19 98 6 7 125 -100 210 -189 102 -107 176 -210 234 -327 l41 -80 -54
-273 c-78 -393 -119 -581 -188 -859 -33 -135 -61 -246 -62 -247 -4 -5 -260 29
-324 43 -125 27 -193 65 -234 128 l-20 31 5 -42 c15 -124 190 -388 380 -570
l84 -81 -13 -64 c-7 -34 -52 -236 -98 -448 -185 -841 -256 -1296 -256 -1640 0
-266 36 -459 119 -635 111 -235 274 -332 471 -280 180 48 345 184 464 382 162
272 357 862 410 1248 33 237 41 385 41 740 0 355 -3 411 -41 680 -39 275 -142
750 -330 1522 l-86 352 107 209 c362 716 603 1023 804 1022 74 -1 125 -25 187
-91 126 -135 209 -379 248 -734 24 -211 63 -755 91 -1270 49 -891 98 -1425
131 -1425 30 0 86 66 124 144 85 176 169 555 314 1406 82 479 143 759 250
1135 86 306 190 553 307 730 76 114 227 263 308 303 145 72 265 20 353 -152
91 -180 119 -333 125 -705 8 -445 -26 -949 -117 -1736 -69 -596 -92 -904 -93
-1255 -1 -146 3 -266 11 -318 43 -275 133 -446 305 -575 128 -96 238 -141 381
-156 227 -24 366 52 470 259 65 130 71 170 57 386 -12 187 -20 235 -37 241
-15 5 -29 -31 -53 -138 -54 -234 -100 -332 -204 -439 -80 -82 -148 -114 -230
-108 -118 7 -245 93 -305 205 -73 137 -97 306 -89 612 10 388 70 874 167 1361
67 337 91 549 110 960 30 681 -13 1200 -120 1436 -37 83 -102 174 -172 240
-111 107 -209 146 -368 147 -267 2 -424 -114 -692 -513 -142 -210 -215 -381
-313 -730 -100 -357 -244 -1055 -305 -1478 -7 -46 -14 -81 -16 -79 -2 2 1 158
6 348 20 715 -25 1310 -126 1674 -92 330 -266 607 -428 684 -172 81 -328 29
-527 -176 -191 -195 -434 -559 -692 -1036 -44 -81 -81 -146 -82 -145 -26 33
-253 374 -284 428 -25 41 -62 101 -83 133 -35 51 -37 58 -21 63 370 129 567
424 463 696 -73 194 -308 346 -575 373 l-70 7 -2 116 c-6 434 -307 748 -640
668z m1186 -3232 c115 -540 185 -952 230 -1344 43 -377 46 -419 46 -705 -1
-323 -9 -392 -86 -784 -67 -340 -135 -585 -210 -750 -54 -118 -153 -273 -219
-342 -55 -57 -74 -70 -124 -84 -67 -20 -157 -15 -205 10 -88 45 -142 184 -162
415 -20 234 7 483 107 1010 79 413 222 1111 229 1118 2 2 34 -8 70 -23 89 -35
183 -43 261 -20 49 14 69 27 120 79 128 130 125 262 -9 396 -62 63 -136 101
-237 125 -41 10 -76 19 -78 20 -1 1 14 76 33 166 47 213 185 888 185 902 0 31
12 -16 49 -189z"/>
<path d="M8737 5201 c-48 -16 -49 -18 -90 -111 -36 -83 -51 -105 -122 -176
-45 -45 -90 -86 -101 -92 -14 -7 -40 -2 -107 24 -125 48 -197 58 -367 51 -151
-6 -244 -21 -351 -58 -197 -67 -453 -233 -615 -401 -220 -226 -392 -548 -461
-860 -14 -65 -18 -126 -18 -283 0 -178 3 -209 23 -280 50 -174 159 -346 272
-430 223 -163 680 -177 1089 -33 260 92 417 225 615 521 133 199 186 410 186
737 0 331 -60 781 -111 834 -16 17 -10 36 29 94 21 31 62 96 90 143 29 48 68
99 88 114 40 30 73 94 74 138 0 18 -11 39 -29 58 -34 33 -31 33 -94 10z m-560
-457 c127 -41 127 -39 43 -118 -147 -138 -275 -214 -398 -236 -61 -11 -76 -10
-151 9 -113 29 -223 77 -268 116 l-38 32 100 66 c258 168 472 207 712 131z
m203 -724 c-31 -406 -90 -669 -197 -884 -109 -218 -291 -428 -438 -503 -44
-23 -109 -51 -145 -62 -165 -53 -407 -38 -494 30 -87 69 -172 283 -217 552
-30 174 -24 419 14 557 49 178 141 387 265 600 30 52 59 101 65 107 7 10 26
-5 73 -56 119 -128 207 -166 384 -165 141 0 265 31 415 103 99 47 235 146 265
193 14 21 15 8 18 -152 2 -96 -2 -240 -8 -320z"/>
<path d="M9123 4998 c-51 -53 -93 -115 -93 -138 0 -9 9 -25 21 -36 37 -33 164
-306 264 -566 l53 -138 -23 -95 c-13 -52 -44 -146 -69 -208 -104 -261 -247
-681 -292 -862 -42 -166 -49 -308 -20 -385 38 -102 111 -180 195 -208 46 -16
144 -15 208 2 174 46 294 157 405 371 88 171 110 247 127 454 20 229 -22 449
-177 916 l-70 210 24 35 c13 19 57 73 97 119 126 142 273 256 374 288 53 17
56 17 91 -2 47 -26 84 -87 127 -210 65 -190 85 -375 106 -995 8 -237 14 -327
23 -335 7 -5 23 -25 36 -43 20 -31 26 -33 58 -27 91 17 118 66 167 295 47 225
93 394 150 550 25 69 48 132 51 140 3 9 15 -4 35 -39 39 -72 102 -153 158
-203 56 -50 154 -98 199 -98 109 0 181 118 123 199 -47 66 -92 83 -282 107
-116 14 -198 38 -213 63 -17 27 103 298 179 406 97 137 249 245 343 245 39 0
50 -5 82 -39 103 -108 95 -326 -40 -1187 -27 -175 -57 -357 -66 -404 -23 -115
-23 -376 -1 -479 22 -98 69 -196 116 -241 44 -42 164 -102 241 -121 30 -8 102
-14 160 -13 86 0 114 4 153 22 l48 21 30 -34 c59 -67 148 -57 221 23 l43 48
45 -17 c81 -32 150 -22 203 29 57 55 58 139 1 224 l-34 50 30 34 c91 105 91
236 -1 286 -47 25 -116 23 -171 -5 l-46 -23 -36 38 c-49 52 -104 78 -165 78
-106 0 -162 -100 -130 -230 3 -10 -8 -16 -36 -20 -118 -18 -196 -110 -162
-193 17 -40 70 -86 108 -94 16 -3 29 -8 29 -12 0 -11 -56 -41 -116 -62 -109
-37 -199 -18 -234 50 -73 144 -49 442 85 1031 87 381 116 591 116 830 1 184
-14 277 -55 358 -57 113 -210 192 -369 192 -129 -1 -240 -44 -363 -141 -207
-164 -294 -337 -457 -904 -14 -47 -14 -42 -9 100 9 274 -28 526 -97 663 -17
34 -58 90 -92 126 -136 146 -287 168 -469 69 -105 -56 -205 -137 -358 -287
-84 -82 -146 -136 -151 -130 -16 18 -289 489 -304 525 -14 35 -50 69 -72 69
-6 0 -29 -19 -52 -42z m375 -1258 c68 -306 75 -357 69 -520 -9 -261 -69 -454
-178 -581 -73 -85 -136 -107 -213 -75 -54 23 -71 81 -71 246 l0 135 169 503
c94 277 173 497 177 490 3 -7 25 -96 47 -198z"/>
<path d="M3760 4914 c-81 -10 -291 -56 -365 -80 -168 -54 -333 -153 -402 -241
-114 -144 -109 -308 12 -429 66 -66 128 -84 227 -64 162 31 250 111 443 400
184 275 271 363 380 380 l40 7 -30 13 c-30 13 -235 22 -305 14z"/>
<path d="M12606 3545 c-3 -9 -27 -26 -53 -37 -44 -20 -66 -22 -278 -23 -217
-1 -233 -2 -283 -24 -123 -55 -155 -153 -81 -256 109 -152 337 -118 533 79 87
87 146 168 166 229 12 37 9 64 -4 32z"/>
</g>
</svg>
